<?xml version="1.0" encoding="UTF-8" standalone="no"?>
<!DOCTYPE svg PUBLIC "-//W3C//DTD SVG 1.1//EN"
 "http://www.w3.org/Graphics/SVG/1.1/DTD/svg11.dtd">
<!-- Generated by graphviz version 2.40.1 (20161225.0304)
 -->
<!-- Title: G Pages: 1 -->
<svg width="680pt" height="306pt"
 viewBox="0.00 0.00 680.06 306.00" xmlns="http://www.w3.org/2000/svg" xmlns:xlink="http://www.w3.org/1999/xlink">
<g id="graph0" class="graph" transform="scale(1 1) rotate(0) translate(4 302)">
<title>G</title>
<polygon fill="#ffffff" stroke="transparent" points="-4,4 -4,-302 676.0615,-302 676.0615,4 -4,4"/>
<g id="clust3" class="cluster">
<title>cluster_was</title>
<polygon fill="none" stroke="#000000" points="197.4263,-8 197.4263,-290 606.0615,-290 606.0615,-8 197.4263,-8"/>
<text text-anchor="middle" x="401.7439" y="-274.8" font-family="Times,serif" font-size="14.00" fill="#000000">WAS(Web Application Server)</text>
</g>
<g id="clust4" class="cluster">
<title>cluster_container</title>
<polygon fill="none" stroke="#000000" points="205.4263,-16 205.4263,-260 598.0615,-260 598.0615,-16 205.4263,-16"/>
<text text-anchor="middle" x="401.7439" y="-244.8" font-family="Times,serif" font-size="14.00" fill="#000000">서블릿 JSP 컨테이너</text>
</g>
<g id="clust5" class="cluster">
<title>cluster_web_app</title>
<polygon fill="none" stroke="#000000" points="213.4263,-24 213.4263,-227 590.0615,-227 590.0615,-24 213.4263,-24"/>
<text text-anchor="middle" x="401.7439" y="-211.8" font-family="Times,serif" font-size="14.00" fill="#000000">웹 어플리케이션</text>
</g>
<!-- Y0 -->
<!-- Y1 -->
<!-- Y0&#45;&gt;Y1 -->
<!-- WebClient -->
<g id="node4" class="node">
<title>WebClient</title>
<ellipse fill="none" stroke="#000000" cx="137.7131" cy="-176" rx="47.9272" ry="18"/>
<text text-anchor="middle" x="137.7131" y="-171.8" font-family="Times,serif" font-size="14.00" fill="#000000">WebClient</text>
</g>
<!-- Y0&#45;&gt;WebClient -->
<!-- Y2 -->
<!-- Y1&#45;&gt;Y2 -->
<!-- JSPs -->
<g id="node5" class="node">
<title>JSPs</title>
<ellipse fill="none" stroke="#000000" cx="309.7559" cy="-176" rx="27" ry="18"/>
<text text-anchor="middle" x="309.7559" y="-171.8" font-family="Times,serif" font-size="14.00" fill="#000000">JSPs</text>
</g>
<!-- WebClient&#45;&gt;JSPs -->
<g id="edge9" class="edge">
<title>WebClient&#45;&gt;JSPs</title>
<path fill="none" stroke="#000000" d="M182.9154,-182.0233C211.0908,-183.1072 246.8722,-182.9786 273.2427,-181.6374"/>
<polygon fill="#000000" stroke="#000000" points="273.7913,-185.1107 283.562,-181.014 273.3691,-178.1234 273.7913,-185.1107"/>
</g>
<!-- JSPs&#45;&gt;WebClient -->
<g id="edge10" class="edge">
<title>JSPs&#45;&gt;WebClient</title>
<path fill="none" stroke="#000000" d="M283.562,-170.986C259.5866,-169.2735 223.3275,-168.828 192.9613,-169.6495"/>
<polygon fill="#000000" stroke="#000000" points="192.7961,-166.153 182.9154,-169.9767 193.024,-173.1493 192.7961,-166.153"/>
</g>
<!-- Bean -->
<g id="node6" class="node">
<title>Bean</title>
<ellipse fill="none" stroke="#000000" cx="508.0735" cy="-169" rx="73.9759" ry="25.4118"/>
<text text-anchor="middle" x="508.0735" y="-171.8" font-family="Times,serif" font-size="14.00" fill="#000000">Bean</text>
<text text-anchor="middle" x="508.0735" y="-157.8" font-family="Times,serif" font-size="14.00" fill="#000000">(DAO, Service)</text>
</g>
<!-- JSPs&#45;&gt;Bean -->
<g id="edge4" class="edge">
<title>JSPs&#45;&gt;Bean</title>
<path fill="none" stroke="#000000" d="M336.9153,-175.0414C359.5059,-174.244 392.9137,-173.0648 424.2324,-171.9593"/>
<polygon fill="#000000" stroke="#000000" points="424.4408,-175.4543 434.3111,-171.6036 424.1938,-168.4586 424.4408,-175.4543"/>
</g>
<!-- DB -->
<g id="node11" class="node">
<title>DB</title>
<ellipse fill="none" stroke="#000000" cx="645.0615" cy="-169" rx="27" ry="18"/>
<text text-anchor="middle" x="645.0615" y="-164.8" font-family="Times,serif" font-size="14.00" fill="#000000">DB</text>
</g>
<!-- Bean&#45;&gt;DB -->
<g id="edge7" class="edge">
<title>Bean&#45;&gt;DB</title>
<path fill="none" stroke="#000000" d="M579.7771,-162.2566C589.9203,-162.2983 599.9694,-162.5377 609.0321,-162.9749"/>
<polygon fill="#000000" stroke="#000000" points="608.9737,-166.4776 619.1643,-163.579 609.3903,-159.49 608.9737,-166.4776"/>
</g>
<!-- 정적파일 -->
<g id="node7" class="node">
<title>정적파일</title>
<ellipse fill="none" stroke="#000000" cx="309.7559" cy="-113" rx="88.1596" ry="27.1217"/>
<text text-anchor="middle" x="309.7559" y="-117.1112" font-family="Times,serif" font-size="14.00" fill="#000000">정적파일</text>
<text text-anchor="middle" x="309.7559" y="-100.4888" font-family="Times,serif" font-size="14.00" fill="#000000">(CSS, HTML, JSP)</text>
</g>
<!-- 서블릿 -->
<g id="node8" class="node">
<title>서블릿</title>
<ellipse fill="none" stroke="#000000" cx="508.0735" cy="-108" rx="39.9491" ry="18"/>
<text text-anchor="middle" x="508.0735" y="-105.1112" font-family="Times,serif" font-size="14.00" fill="#000000">서블릿</text>
</g>
<!-- 정적파일&#45;&gt;서블릿 -->
<!-- Package -->
<g id="node9" class="node">
<title>Package</title>
<ellipse fill="none" stroke="#000000" cx="309.7559" cy="-50" rx="39.6385" ry="18"/>
<text text-anchor="middle" x="309.7559" y="-45.8" font-family="Times,serif" font-size="14.00" fill="#000000">Package</text>
</g>
<!-- Class -->
<g id="node10" class="node">
<title>Class</title>
<ellipse fill="none" stroke="#000000" cx="508.0735" cy="-50" rx="29.0429" ry="18"/>
<text text-anchor="middle" x="508.0735" y="-45.8" font-family="Times,serif" font-size="14.00" fill="#000000">Class</text>
</g>
<!-- Package&#45;&gt;Class -->
<!-- DB&#45;&gt;Bean -->
<g id="edge8" class="edge">
<title>DB&#45;&gt;Bean</title>
<path fill="none" stroke="#000000" d="M619.1643,-174.421C610.5671,-175.0451 600.4852,-175.4494 589.9644,-175.6339"/>
<polygon fill="#000000" stroke="#000000" points="589.7389,-172.136 579.7771,-175.7434 589.8142,-179.1356 589.7389,-172.136"/>
</g>
</g>
</svg>
